# xmcd
#
# Track frame offsets:
#	150
#	8257
#	26855
#	39078
#	50288
#	68144
#	82671
#	98187
#	116340
#	132154
#	145380
#	155365
#	170478
#	185859
#	202525
#	219591
#
# Disc length: 3156 seconds
#
# Revision: 0
# Processed by: cddbd v1.5.2PL0 Copyright (c) Steve Scherf et al.
# Submitted via: EasyCDDAExtractor 11.0.3.1
#
DISCID=c60c5210
DTITLE=Martina Mcbride - White Christmas (Expanded)
DYEAR=2007
DGENRE=Country
TTITLE0=Let It Snow, Let It Snow, Let It Snow
TTITLE1=Have Yourself A Merry Little Christmas
TTITLE2=Silver Bells
TTITLE3=Hark! The Herald Angels Sing
TTITLE4=Do You Hear What I Hear
TTITLE5=I'll Be Home For Christmas
TTITLE6=Winter Wonderland
TTITLE7=O Come All Ye Faithful
TTITLE8=Away In A Manger
TTITLE9=Baby, It's Cold Outside
TTITLE10=Jingle Bells
TTITLE11=White Christmas
TTITLE12=Silent Night
TTITLE13=The Christmas Song (Chestnuts Roasting On An Open Fire)
TTITLE14=What Child Is This
TTITLE15=O Holy Night
EXTD=
EXTT0=
EXTT1=
EXTT2=
EXTT3=
EXTT4=
EXTT5=
EXTT6=
EXTT7=
EXTT8=
EXTT9=
EXTT10=
EXTT11=
EXTT12=
EXTT13=
EXTT14=
EXTT15=
PLAYORDER=
